<?xml version="1.0" encoding="UTF-8"?>
<svg id="_レイヤー_2" data-name="レイヤー 2" xmlns="http://www.w3.org/2000/svg" viewBox="0 0 135.67 79.3">
  <defs>
    <style>
      .cls-1 {
        stroke-width: 0px;
      }

      .cls-1, .cls-2, .cls-3, .cls-4 {
        fill: #949da5;
      }

      .cls-2 {
        stroke: #9b9b9b;
        stroke-miterlimit: 10;
      }

      .cls-3 {
        font-family: Cochin, Cochin;
        font-size: 21px;
      }

      .cls-4 {
        font-family: Menlo-Regular, Menlo;
        font-size: 36px;
      }
    </style>
  </defs>
  <g id="OBJECTS">
    <g>
      <g>
        <path class="cls-1" d="M6.11,46.71c0,1.69-1.37,3.05-3.05,3.05s-3.05-1.37-3.05-3.05,1.37-3.05,3.05-3.05,3.05,1.37,3.05,3.05Z"/>
        <path class="cls-1" d="M32.02,46.71c0,1.69-1.37,3.05-3.05,3.05s-3.05-1.37-3.05-3.05,1.37-3.05,3.05-3.05,3.05,1.37,3.05,3.05Z"/>
        <path class="cls-1" d="M57.93,46.71c0,1.69-1.37,3.05-3.05,3.05s-3.05-1.37-3.05-3.05,1.37-3.05,3.05-3.05,3.05,1.37,3.05,3.05Z"/>
        <path class="cls-1" d="M83.84,46.71c0,1.69-1.37,3.05-3.05,3.05s-3.05-1.37-3.05-3.05,1.37-3.05,3.05-3.05,3.05,1.37,3.05,3.05Z"/>
        <path class="cls-1" d="M109.76,46.71c0,1.69-1.37,3.05-3.05,3.05s-3.05-1.37-3.05-3.05,1.37-3.05,3.05-3.05,3.05,1.37,3.05,3.05Z"/>
        <path class="cls-1" d="M135.67,46.71c0,1.69-1.37,3.05-3.05,3.05s-3.05-1.37-3.05-3.05,1.37-3.05,3.05-3.05,3.05,1.37,3.05,3.05Z"/>
        <line class="cls-2" x1="3.05" y1="46.71" x2="133.42" y2="46.71"/>
      </g>
      <text class="cls-4" transform="translate(24.49 33.37)"><tspan x="0" y="0">Élan</tspan></text>
      <text class="cls-3" transform="translate(26.81 73.8)"><tspan x="0" y="0">hair&amp;eye</tspan></text>
    </g>
  </g>
</svg>